Coordinates
version=1
nRows=29
nColumns=22
inDegrees=yes

Units are S.I. units (second, meters, Newtons, ...)
If the header above contains a line with 'inDegrees', this indicates whether rotational values are in degrees (yes) or radians (no).

endheader
time	pelvis_tilt	pelvis_list	pelvis_rotation	pelvis_tx	pelvis_ty	pelvis_tz	hip_flexion_r	hip_adduction_r	hip_rotation_r	knee_angle_r	ankle_angle_r	subtalar_angle_r	hip_flexion_l	hip_adduction_l	hip_rotation_l	knee_angle_l	ankle_angle_l	subtalar_angle_l	lumbar_extension	lumbar_bending	lumbar_rotation
      1.31000000	      0.18721916	     -0.04360871	    -13.41164483	     -0.99290924	      0.90008660	     -0.45578944	     19.39870839	     -1.40086719	      2.80845821	    -45.87364748	     16.88655918	     -7.57139076	     -1.60173965	      1.95127082	    -16.03835825	    -16.74278466	     20.17391449	     -5.28393999	    -13.16528776	     -3.18385524	      4.15353749
      1.32000000	      0.17381617	     -0.17016158	    -13.09619869	     -0.99076525	      0.90014023	     -0.45643719	     20.18495443	     -1.19479314	      2.56052733	    -46.45957589	     16.82472755	     -7.66831562	     -1.82966734	      1.86258400	    -15.78528295	    -16.57699110	     20.21793996	     -5.21838342	    -13.40835027	     -2.96255778	      3.85968143
      1.33000000	      0.11601962	     -0.29213488	    -12.74237478	     -0.98842312	      0.90011488	     -0.45709969	     20.94373124	     -1.03328701	      2.22278086	    -46.79004803	     16.84366337	     -7.78626582	     -2.01791567	      1.76530762	    -15.48755940	    -16.41345298	     20.23295692	     -5.14725417	    -13.57938990	     -2.71898868	      3.53741491
      1.34000000	      0.04989722	     -0.40231977	    -12.39106109	     -0.98592192	      0.90004613	     -0.45771051	     21.65946756	     -0.91710099	      1.84943107	    -46.89952838	     16.87143342	     -7.95442545	     -2.20317336	      1.67610916	    -15.18264523	    -16.25486922	     20.25188072	     -5.07479645	    -13.72404059	     -2.48496943	      3.23367660
      1.35000000	     -0.02087069	     -0.50427698	    -12.03947493	     -0.98325098	      0.89993372	     -0.45827031	     22.32630225	     -0.84431541	      1.44256801	    -46.79858182	     16.90520263	     -8.18725872	     -2.39320307	      1.59307218	    -14.86476418	    -16.09561742	     20.27824352	     -4.99614270	    -13.84633923	     -2.25761168	      2.94585735
      1.36000000	     -0.08159945	     -0.59917582	    -11.71067850	     -0.98040756	      0.89978747	     -0.45872585	     22.92806667	     -0.80009981	      1.03778292	    -46.49574457	     16.99741898	     -8.81564385	     -2.60342793	      1.51086950	    -14.61411446	    -15.94238260	     20.31789239	     -4.85541480	    -13.96295572	     -2.04318929	      2.67488016
      1.37000000	     -0.14664661	     -0.68815538	    -11.38647690	     -0.97741095	      0.89959964	     -0.45912616	     23.48464685	     -0.79212283	      0.60563512	    -46.00912116	     17.01051347	     -8.99964952	     -2.82107172	      1.43970804	    -14.31053399	    -15.78008867	     20.37429565	     -4.77482578	    -14.06301187	     -1.83495909	      2.43407200
      1.38000000	     -0.16467520	     -0.79189482	    -11.07962797	     -0.97424682	      0.89941827	     -0.45940654	     23.94010532	     -0.79242098	      0.15975145	    -45.36153859	     17.09642287	     -9.60054182	     -3.09778767	      1.34838678	    -14.09457357	    -15.63360349	     20.44776407	     -4.58084282	    -14.21111521	     -1.62372031	      2.19214765
      1.39000000	     -0.22586252	     -0.88788865	    -10.78455687	     -0.97097412	      0.89911786	     -0.45959076	     24.39991025	     -0.79738066	     -0.27843052	    -44.56133991	     17.12431124	     -9.75406840	     -3.32166047	      1.25603137	    -13.82895272	    -15.51116405	     20.55266532	     -4.49081984	    -14.30154494	     -1.41893366	      1.99090802
      1.40000000	     -0.22185398	     -1.00315663	    -10.49028294	     -0.96752625	      0.89885291	     -0.45967468	     24.73529492	     -0.81566400	     -0.77051848	    -43.61921635	     17.14968327	    -10.04375031	     -3.62042242	      1.14086154	    -13.64029526	    -15.41031497	     20.68974906	     -4.33395397	    -14.46242629	     -1.20510045	      1.74619891
      1.41000000	     -0.23246524	     -1.13406922	    -10.22470818	     -0.96396666	      0.89850494	     -0.45960679	     25.03987651	     -0.79874838	     -1.24325488	    -42.54487662	     17.17272231	    -10.22135657	     -3.90519514	      1.00272404	    -13.43016550	    -15.33322086	     20.84498837	     -4.19799711	    -14.60325133	     -0.98342237	      1.57999427
      1.42000000	     -0.23064301	     -1.28010603	     -9.97383487	     -0.96027079	      0.89811207	     -0.45937756	     25.28297304	     -0.75819176	     -1.73035999	    -41.35209161	     17.17194516	    -10.30101440	     -4.20246519	      0.84002637	    -13.22500262	    -15.28634612	     21.02485146	     -4.07365574	    -14.75359904	     -0.76227039	      1.43633679
      1.43000000	     -0.21165862	     -1.44289472	     -9.72838944	     -0.95643049	      0.89768027	     -0.45904707	     25.46110717	     -0.69894744	     -2.23869646	    -40.05491073	     17.13654297	    -10.27801077	     -4.51542563	      0.65317446	    -13.02566765	    -15.27032503	     21.23017555	     -3.95733218	    -14.91914654	     -0.52411706	      1.30741234
      1.44000000	     -0.17630081	     -1.62269028	     -9.48920854	     -0.95243838	      0.89721229	     -0.45858224	     25.57381511	     -0.61234706	     -2.76361567	    -38.66212425	     17.06473412	    -10.14115694	     -4.84547402	      0.44046951	    -12.82323545	    -15.28425720	     21.45568410	     -3.84673044	    -15.09754613	     -0.27804421	      1.19827054
      1.45000000	     -0.09272325	     -1.81412456	     -9.26237383	     -0.94829074	      0.89676379	     -0.45797152	     25.58825372	     -0.50324138	     -3.28953288	    -37.18496843	     16.96589178	     -9.79433462	     -5.23830758	      0.21802333	    -12.60034474	    -15.30291547	     21.67536187	     -3.70771652	    -15.32529480	     -0.03913969	      1.13055424
      1.46000000	     -0.03719509	     -2.00621819	     -9.03453784	     -0.94401539	      0.89620324	     -0.45726233	     25.60262635	     -0.37366872	     -3.80815576	    -35.65414973	     16.82052742	     -9.39614109	     -5.58229054	     -0.02500446	    -12.38771081	    -15.37603356	     21.92592215	     -3.60634808	    -15.51270457	      0.20641449	      1.05616476
      1.47000000	      0.02305978	     -2.19798093	     -8.81565733	     -0.93959861	      0.89559085	     -0.45641960	     25.58269942	     -0.22612041	     -4.31184787	    -34.08246672	     16.64285852	     -8.92803325	     -5.93203270	     -0.27708437	    -12.17416954	    -15.46959884	     22.17596076	     -3.50886059	    -15.69451682	      0.44120482	      1.00061700
      1.48000000	      0.08477596	     -2.38001185	     -8.60367822	     -0.93504754	      0.89491988	     -0.45546285	     25.54068768	     -0.07249540	     -4.79285086	    -32.49301260	     16.44617390	     -8.42752557	     -6.28470379	     -0.52717027	    -11.96101623	    -15.57769779	     22.42661249	     -3.41192304	    -15.86873477	      0.66173145	      0.95510703
      1.49000000	      0.14626633	     -2.55005292	     -8.40009486	     -0.93035203	      0.89419288	     -0.45439913	     25.48321541	      0.08116127	     -5.25520464	    -30.90589100	     16.23212095	     -7.90415386	     -6.64610822	     -0.77064267	    -11.74790142	    -15.68768801	     22.66306195	     -3.31086398	    -16.03184064	      0.86457882	      0.92051218
      1.50000000	      0.20703484	     -2.70477209	     -8.20089860	     -0.92551253	      0.89340772	     -0.45323162	     25.41497793	      0.22827042	     -5.70122279	    -29.33925662	     16.01296690	     -7.40562393	     -7.01528468	     -1.00496908	    -11.53277410	    -15.80024794	     22.88454080	     -3.20832036	    -16.18248978	      1.04746374	      0.88847542
      1.51000000	      0.22591563	     -2.85200219	     -7.99323864	     -0.92054726	      0.89251165	     -0.45196976	     25.38444057	      0.37484204	     -6.15928047	    -27.81590190	     15.75221905	     -7.11098421	     -7.32747738	     -1.25412315	    -11.32522001	    -15.94969832	     23.10879504	     -3.14002326	    -16.27369698	      1.22626927	      0.85158696
      1.52000000	      0.33757306	     -2.97301778	     -7.78297666	     -0.91536689	      0.89170372	     -0.45065882	     25.23808323	      0.47909753	     -6.61519425	    -26.34153913	     15.58834737	     -6.63365912	     -7.78071610	     -1.45760327	    -11.10485765	    -16.03914404	     23.28416022	     -3.01378204	    -16.45494126	      1.37254305	      0.77318403
      1.53000000	      0.37283445	     -3.08733355	     -7.55791730	     -0.91008847	      0.89073394	     -0.44925349	     25.18499996	      0.58064505	     -7.11518332	    -24.96818443	     15.34257956	     -6.39565424	     -8.12414025	     -1.68311460	    -10.85389434	    -16.19166278	     23.44961660	     -2.93438312	    -16.53931806	      1.51758874	      0.72954153
      1.54000000	      0.46098836	     -3.19028126	     -7.30550796	     -0.90461791	      0.88979778	     -0.44780312	     25.06488905	      0.65245243	     -7.65744051	    -23.68848174	     15.18432819	     -6.16016615	     -8.53711913	     -1.89832507	    -10.58846250	    -16.33477044	     23.59678141	     -2.83974215	    -16.67036194	      1.65275549	      0.63237566
      1.55000000	      0.56335695	     -3.27665745	     -7.03362025	     -0.89898732	      0.88883897	     -0.44627860	     24.93613884	      0.69960086	     -8.23662034	    -22.54008586	     15.06756995	     -5.96366719	     -8.96418089	     -2.10752294	    -10.32417004	    -16.49139254	     23.71779414	     -2.74350729	    -16.80383958	      1.77167832	      0.49864164
      1.56000000	      0.66850266	     -3.34961095	     -6.74030722	     -0.89320592	      0.88784411	     -0.44468359	     24.81642581	      0.72578647	     -8.85210071	    -21.54737827	     14.99039061	     -5.83728059	     -9.38604551	     -2.31495154	    -10.03693905	    -16.67525921	     23.81567568	     -2.65845574	    -16.92728041	      1.88059720	      0.34226271
      1.57000000	      0.79101193	     -3.41360342	     -6.42714799	     -0.88726833	      0.88685219	     -0.44302017	     24.68655471	      0.73546964	     -9.50655900	    -20.71919828	     14.96058870	     -5.75701357	     -9.82501541	     -2.52281138	     -9.73789268	    -16.87383047	     23.89112362	     -2.58097705	    -17.05983815	      1.98547205	      0.15534966
      1.58000000	      0.92232371	     -3.46892513	     -6.10363773	     -0.88116678	      0.88586255	     -0.44126635	     24.55642089	      0.73537816	    -10.17957691	    -20.07051916	     14.95954353	     -5.71652649	    -10.27339577	     -2.73122774	     -9.42449650	    -17.08800572	     23.94028794	     -2.51525723	    -17.18811050	      2.08451436	     -0.05147613
      1.59000000	      1.07550878	     -3.52694384	     -5.77685492	     -0.87489986	      0.88491646	     -0.43940695	     24.39798292	      0.74263540	    -10.85013688	    -19.58824598	     14.96504782	     -5.68816402	    -10.75111146	     -2.94945922	     -9.10022652	    -17.31059851	     23.96864683	     -2.45662405	    -17.33102663	      2.18672633	     -0.26136654
